# xmcd
#
# Track frame offsets:
#	150
#	18150
#	40200
#	63025
#	84475
#	108575
#	126750
#	152700
#	173700
#	196575
#
# Disc length: 2924 seconds
#
# Revision: 2047818809
# Processed by: cddbd v1.5.2PL0 Copyright (c) Steve Scherf et al.
# Submitted via: EZCDAudioConverter 8.0.2.1
#
DISCID=700b6a0a
DTITLE=Mỹ Huyền, Randy - Mỹ Huyền and Randy 2
DYEAR=1995
DGENRE=World Pop
TTITLE0=Randy - Chuyện tình người mang tên Phượng
TTITLE1=Mỹ Huyền, Randy - Chuyện tình không dĩ vãng
TTITLE2=Mỹ Huyền - Nhớ anh
TTITLE3=Mỹ Huyền, Randy - Niềm đau dĩ vãng
TTITLE4=Randy - Đêm buồn tình lẻ
TTITLE5=Mỹ Huyền - Chuyện chúng mình
TTITLE6=Mỹ Huyền, Randy - Mực tím mồng tơi
TTITLE7=Randy - Hoa tím bằng lăng
TTITLE8=Mỹ Huyền, Randy - Chuyện tình không đoạn kết
TTITLE9=Mỹ Huyền - Tình đời
EXTD=
EXTT0=
EXTT1=
EXTT2=
EXTT3=
EXTT4=
EXTT5=
EXTT6=
EXTT7=
EXTT8=
EXTT9=
PLAYORDER=
